<svg width="24" height="24" viewBox="0 0 24 24" fill="none" xmlns="http://www.w3.org/2000/svg">
<path d="M17.2 12.4C14.55 12.4 12.4 14.55 12.4 17.2C12.4 18.1 12.65 18.95 13.1 19.67C13.93 21.06 15.45 22 17.2 22C18.95 22 20.48 21.06 21.3 19.67C21.74 18.95 22 18.1 22 17.2C22 14.55 19.85 12.4 17.2 12.4ZM19.58 16.57L17.02 18.93C16.88 19.06 16.69 19.13 16.51 19.13C16.32 19.13 16.13 19.06 15.98 18.91L14.8 17.73C14.51 17.44 14.51 16.96 14.8 16.67C15.09 16.38 15.57 16.38 15.86 16.67L16.53 17.34L18.56 15.46C18.86 15.18 19.34 15.2 19.62 15.5C19.9 15.81 19.88 16.29 19.58 16.57Z" fill="#1945AA"/>
<path d="M22 8.73001C22 9.92001 21.81 11.02 21.48 12.04C21.42 12.25 21.17 12.31 20.99 12.18C19.9 11.37 18.57 10.94 17.2 10.94C13.73 10.94 10.9 13.77 10.9 17.24C10.9 18.32 11.18 19.38 11.71 20.32C11.87 20.6 11.68 20.96 11.38 20.85C8.97 20.03 4.1 17.04 2.52 12.04C2.19 11.02 2 9.92001 2 8.73001C2 5.64001 4.49 3.14001 7.56 3.14001C9.37 3.14001 10.99 4.02001 12 5.37001C13.01 4.02001 14.63 3.14001 16.44 3.14001C19.51 3.14001 22 5.64001 22 8.73001Z" fill="#1945AA"/>
</svg>
