<?xml version="1.0" encoding="utf-8"?>
<!-- Svg Vector Icons : http://www.onlinewebfonts.com/icon -->
<!DOCTYPE svg PUBLIC "-//W3C//DTD SVG 1.1//EN" "http://www.w3.org/Graphics/SVG/1.1/DTD/svg11.dtd">
<svg version="1.1" xmlns="http://www.w3.org/2000/svg" xmlns:xlink="http://www.w3.org/1999/xlink" x="0px" y="0px" viewBox="0 0 1000 1000" enable-background="new 0 0 1000 1000" xml:space="preserve">
<metadata> Svg Vector Icons : http://www.onlinewebfonts.com/icon </metadata>
<g><g transform="translate(0.000000,511.000000) scale(0.100000,-0.100000)"><path d="M6509,4983.7c-38.9-19.5-62.3-56.4-83.7-130.3c-15.6-54.5-184.8-630.3-377.4-1278.1l-346.3-1177l-393-5.8l-393-3.9l-145.9,155.6c-461.1,488.3-1130.3,657.5-1770.3,445.5c-536.9-179-959.1-628.4-1120.6-1194.5c-37-132.3-44.7-200.4-42.8-437.7c1.9-247.1,7.8-303.5,52.5-453.3C2038.4,414,2340,59.9,2787.4-154.1c79.8-37,145.9-73.9,145.9-81.7c0-9.7,268.5-1457.1,733.4-3968.6c64.2-344.3,103.1-507.7,128.4-540.8l35-44.7h1571.9h1571.9l40.8,44.7c40.9,42.8,72,276.3,463,3468.7C7707.4,604.6,7898,2188.2,7900,2240.7c2,77.8-5.8,101.2-42.8,130.4c-42.8,35-95.3,37-949.4,37c-715.9,0-902.7,5.8-894.9,25.3c3.9,11.7,145.9,496.1,315.2,1073.9c169.2,577.8,313.2,1058.3,321,1066.1c7.8,9.7,301.5-196.5,653.7-455.2c572-422.2,647.8-472.7,715.9-472.7c118.7-1.9,179,95.3,126.5,206.2c-17.5,38.9-1106.9,867.6-1431.8,1091.4C6594.6,5022.7,6582.9,5024.6,6509,4983.7z M3773.7,2750.4c505.8-97.3,904.6-451.3,1079.7-955.2c48.6-140.1,52.5-180.9,52.5-418.3c0-231.5-5.8-280.1-52.5-418.3c-70-212.1-173.2-379.4-328.8-535C4359.3,260.3,4192,149.4,3981.9,69.6c-159.5-62.3-173.1-64.2-465-64.2c-289.9,0-307.4,3.9-457.2,60.3c-266.5,103.1-437.7,227.6-614.7,451.3c-62.2,75.9-140.1,196.5-173.1,266.5c-206.2,431.9-175.1,955.2,77.8,1340.4C2664.9,2604.5,3234.9,2853.5,3773.7,2750.4z M7563.4,2055.9c0-31.1-173.2-1515.5-184.8-1587.5l-11.7-64.2H6151c-669.2,0-1213.9,5.8-1210,15.6c3.9,7.8,46.7,97.3,99.2,198.4c134.2,270.4,175.1,441.6,175.1,749c2,252.9-35,459.1-112.8,645.9l-27.2,64.2h1245.1C7197.7,2077.3,7563.4,2071.5,7563.4,2055.9z M7330,54.1c0-21.4-105.1-894.9-235.4-1941.5c-128.4-1044.7-252.9-2058.2-276.3-2250.8l-42.8-350.2l-1377.4-5.8c-785.9-2-1375.4,3.9-1375.4,13.6c0,15.6-750.9,4069.8-764.5,4126.2c-5.8,25.3,31.1,29.2,266.5,29.2c225.7,0,301.5,7.8,429.9,44.7c190.6,54.5,472.7,192.6,603.1,293.8L4655,91h1338.4C7320.2,93,7330,93,7330,54.1z"/><path d="M3571.4,2135.7c-46.7-29.2-280.1-313.2-295.7-363.8c-17.5-56.4,35-157.6,95.3-180.9c77.8-29.2,132.3,5.8,280.1,184.8c155.6,188.7,171.2,249,89.5,330.7C3692,2157.1,3627.8,2166.8,3571.4,2135.7z"/><path d="M2709.6,1464.5c-58.4-56.4-66.1-163.4-13.6-208.2c79.8-72,328.8-210.1,373.5-210.1c114.8,0,182.9,163.4,103.1,245.1c-70,68.1-322.9,221.8-369.6,221.8C2777.7,1513.1,2734.9,1491.7,2709.6,1464.5z"/><path d="M3575.3,1108.5c-50.6-50.6-54.5-68.1-68.1-276.3l-13.6-221.8l60.3-54.5c33.1-29.2,79.8-54.5,101.2-54.5c64.2,0,153.7,103.1,153.7,179c0,35,5.8,136.2,11.7,223.7c13.6,151.7,11.7,159.5-37,208.2C3717.3,1178.5,3645.3,1176.6,3575.3,1108.5z"/><path d="M4289.3-860.3c-68.1-54.5-73.9-173.1-9.7-233.4c38.9-37,66.1-38.9,408.5-38.9h367.7l50.6,50.6c40.8,40.9,46.7,62.3,38.9,120.6c-21.4,126.5-33.1,130.3-437.7,136.2C4359.3-819.4,4339.8-821.4,4289.3-860.3z"/><path d="M5802.8-1638.4c-21.4-23.3-37-70-37-107c0-37,15.6-83.7,37-107c33.1-37,58.4-38.9,342.4-38.9h307.4l38.9,50.6c23.3,29.2,40.8,72,40.8,95.3c0,23.3-17.5,66.1-40.8,95.3l-38.9,50.6h-307.4C5861.2-1599.5,5835.9-1601.5,5802.8-1638.4z"/><path d="M4888.5-2562.5c-52.5-50.6-60.3-95.3-31.1-171.2c33.1-85.6,93.4-93.4,632.3-87.5c500,5.8,501.9,5.8,538.9,52.5c50.6,62.2,48.6,159.5-7.8,212c-44.7,40.8-58.4,42.8-566.1,42.8h-519.4L4888.5-2562.5z"/><path d="M5199.7-3632.5c-31.1-29.2-48.6-70-48.6-107c0-37,17.5-77.8,48.6-107c46.7-48.6,50.6-48.6,408.5-48.6c358,0,361.8,0,408.5,48.6c31.1,29.2,48.6,70,48.6,107c0,37-17.5,77.8-48.6,107c-46.7,48.6-50.6,48.6-408.5,48.6C5250.3-3583.8,5246.4-3583.8,5199.7-3632.5z"/></g></g>
</svg>