<svg width="52" height="52" viewBox="0 0 52 52" fill="none" xmlns="http://www.w3.org/2000/svg">
<path fill-rule="evenodd" clip-rule="evenodd" d="M6.82017 33.28H0V52H52V33.28H45.1798C41.0974 39.5412 34.032 43.68 26 43.68C17.968 43.68 10.9026 39.5412 6.82017 33.28Z" fill="#1945AA"/>
<circle opacity="0.3" cx="26" cy="20.8" r="20.8" fill="#DCE0E9"/>
<path d="M38.9999 19.487V11.271C38.9999 9.71097 37.7259 8.55397 36.1789 8.68397H36.1009C33.3709 8.91797 29.2239 10.309 26.9099 11.765L26.6889 11.908C26.3119 12.142 25.6879 12.142 25.3109 11.908L24.9859 11.713C22.6719 10.27 18.5379 8.89197 15.8079 8.67097C14.2609 8.54097 12.9999 9.71097 12.9999 11.258V26.962C12.9999 28.21 14.0139 29.38 15.2619 29.536L15.6389 29.588C18.4599 29.965 22.8149 31.395 25.3109 32.76L25.3629 32.786C25.7139 32.981 26.2729 32.981 26.6109 32.786C29.1069 31.408 33.4749 29.965 36.3089 29.588L36.7379 29.536C37.9859 29.38 38.9999 28.21 38.9999 26.962V24.726" stroke="#1945AA" stroke-width="1.5" stroke-linecap="round" stroke-linejoin="round"/>
<path d="M25.9999 12.337V31.837" stroke="#1945AA" stroke-width="1.5" stroke-linecap="round" stroke-linejoin="round"/>
<path d="M20.475 16.237H17.55" stroke="#1945AA" stroke-width="1.5" stroke-linecap="round" stroke-linejoin="round"/>
<path d="M21.45 20.137H17.55" stroke="#1945AA" stroke-width="1.5" stroke-linecap="round" stroke-linejoin="round"/>
</svg>
